<svg xmlns="http://www.w3.org/2000/svg" viewBox="0 0 32 32">
  <defs>
    <linearGradient id="bg" x1="0%" y1="0%" x2="100%" y2="100%">
      <stop offset="0%" style="stop-color:#6366f1"/>
      <stop offset="100%" style="stop-color:#818cf8"/>
    </linearGradient>
  </defs>
  <rect width="32" height="32" rx="6" fill="url(#bg)"/>
  <path d="M16 8c-2.2 0-4 1.8-4 4v4c0 2.2 1.8 4 4 4s4-1.8 4-4v-4c0-2.2-1.8-4-4-4z" fill="white"/>
  <path d="M22 14v2c0 3.3-2.7 6-6 6s-6-2.7-6-6v-2h-2v2c0 4.1 3.1 7.5 7 7.9V26h-3v2h8v-2h-3v-2.1c3.9-.4 7-3.8 7-7.9v-2h-2z" fill="white"/>
</svg>
